<svg id="atom-logo-primary" xmlns="http://www.w3.org/2000/svg" xmlns:xlink="http://www.w3.org/1999/xlink" width="237.971" height="101.283" viewBox="0 0 237.971 101.283">
  <defs>
    <clipPath id="clip-path">
      <rect id="Rectangle_40" data-name="Rectangle 40" width="237.971" height="101.283" fill="none"/>
    </clipPath>
  </defs>
  <g id="Group_10" data-name="Group 10" clip-path="url(#clip-path)">
    <path id="Path_33" data-name="Path 33" d="M305.156,39.1l7.982.184,11.572.267a4.31,4.31,0,0,0,1.953-.1c.814-.434,1.593-.949,2.384-1.421l10.411-6.2c2.511-1.5,5.07-2.934,7.542-4.493.04-.025.081-.048.121-.072a.7.7,0,0,0,.14-1.086L340.3,20.7l-11-8.66-2.555-2.011c-.691-.545-1.677.427-.978.978l6.964,5.481,11,8.66,2.555,2.011.14-1.086-6.251,3.724-10.7,6.377-3.174,1.891a2.081,2.081,0,0,0-.309.184c-.192.168.153-.1.253-.046a2.543,2.543,0,0,0-.8-.018l-10.767-.248c-3.113-.072-6.242-.246-9.355-.216-.053,0-.106,0-.159,0a.692.692,0,0,0,0,1.383" transform="translate(-164.142 -5.318)" fill="#fff"/>
    <path id="Path_34" data-name="Path 34" d="M51.358,118.019h-4.3V67.553L26.044,102.441h-.73L4.3,67.553v50.466H0V61.224H5.354l20.284,33.59,20.284-33.59h5.436Z" transform="translate(0 -33.004)" fill="#fff"/>
    <path id="Path_35" data-name="Path 35" d="M168.3,96.43l-17.525,44.3c-3.083,7.789-9.087,13.063-16.065,12.495v-3.813c5.436.487,9.573-3.57,12.089-9.493l.892-2.191L129.03,96.43h4.382l16.389,36.1,14.118-36.1Z" transform="translate(-69.557 -51.983)" fill="#fff"/>
    <path id="Path_36" data-name="Path 36" d="M237.818,94.828v14.361c0,3.489,3,3.814,8.357,3.489v11.034c-15.9,1.623-20.527-3.164-20.527-14.523V94.828h-6.491V83.145h6.491V75.437l12.17-3.651V83.145h8.357V94.828Z" transform="translate(-118.142 -38.698)" fill="#fff"/>
    <path id="Path_37" data-name="Path 37" d="M290.1,64.3a7.3,7.3,0,1,1,7.3,7.3,7.377,7.377,0,0,1-7.3-7.3" transform="translate(-156.382 -30.727)" fill="#01ffb3"/>
    <path id="Path_38" data-name="Path 38" d="M298.82,96.43h0a6.085,6.085,0,0,1,6.085,6.085V137h-12.17V102.515a6.085,6.085,0,0,1,6.085-6.085" transform="translate(-157.806 -51.983)" fill="#fff"/>
    <path id="Path_39" data-name="Path 39" d="M339.006,67.514a5.948,5.948,0,1,1,4.175,4.176,5.972,5.972,0,0,1-4.175-4.176" transform="translate(-182.635 -32.345)" fill="#0270f5"/>
    <path id="Path_40" data-name="Path 40" d="M381.047,40.641a5.257,5.257,0,1,1,3.689,3.69,5.277,5.277,0,0,1-3.689-3.69" transform="translate(-205.312 -18.329)" fill="#fff"/>
    <path id="Path_41" data-name="Path 41" d="M339.047,6.641a5.257,5.257,0,0,1,10.145-2.766,5.257,5.257,0,1,1-10.145,2.766" transform="translate(-182.671 0)" fill="#01ffb3"/>
    <path id="Path_42" data-name="Path 42" d="M344.587,96.43h0a6.085,6.085,0,0,1,6.085,6.085v25.9H338.5v-25.9a6.085,6.085,0,0,1,6.085-6.085" transform="translate(-182.477 -51.983)" fill="#fff"/>
    <path id="Path_43" data-name="Path 43" d="M445.119,110.76v24.908h-12.17V111.814c0-4.057-1.947-6.653-5.842-6.653-4.057,0-6.329,2.84-6.329,7.627v22.88h-12.17V111.814c0-4.057-1.947-6.653-5.842-6.653-4.057,0-6.329,2.84-6.329,7.627v22.88h-12.17V95.1h12.17v3.732c1.866-2.759,5.436-4.868,10.872-4.868,4.787,0,8.357,1.947,10.629,5.355,2.271-3.245,6-5.355,11.765-5.355,9.33,0,15.415,6.653,15.415,16.795" transform="translate(-207.149 -50.654)" fill="#fff"/>
  </g>
</svg>
