<svg id="atom-logo-secondary" xmlns="http://www.w3.org/2000/svg" width="42" height="42" viewBox="0 0 42 42">
  <circle id="Ellipse_8" data-name="Ellipse 8" cx="21" cy="21" r="21" fill="#00ffb1"/>
  <path id="Path_1" data-name="Path 1" d="M304.735,20.664l2.949.068,4.275.1a1.592,1.592,0,0,0,.721-.035c.3-.16.588-.351.881-.525l3.846-2.291c.928-.553,1.873-1.084,2.786-1.66l.045-.027a.257.257,0,0,0,.052-.4l-2.573-2.025-4.065-3.2-.944-.743c-.255-.2-.619.158-.361.361l2.572,2.025,4.064,3.2.944.743.052-.4-2.309,1.376-3.955,2.356-1.173.7a.77.77,0,0,0-.114.068c-.071.062.057-.036.094-.017a.939.939,0,0,0-.3-.007l-3.978-.092c-1.15-.027-2.306-.091-3.456-.08h-.059a.256.256,0,0,0,0,.511" transform="translate(-290.738 -2.918)" fill="#282828"/>
  <path id="Path_5" data-name="Path 5" d="M290.095,59.7a2.7,2.7,0,1,1,2.7,2.7,2.725,2.725,0,0,1-2.7-2.7" transform="translate(-278.795 -42.027)" fill="#282828"/>
  <path id="Path_6" data-name="Path 6" d="M294.983,96.43h0a2.248,2.248,0,0,1,2.248,2.248v12.738h-4.5V98.678a2.248,2.248,0,0,1,2.248-2.248" transform="translate(-280.986 -74.743)" fill="#282828"/>
  <path id="Path_7" data-name="Path 7" d="M338.873,62.776a2.2,2.2,0,1,1,1.542,1.543,2.206,2.206,0,0,1-1.542-1.543" transform="translate(-319.203 -44.517)" fill="#282828"/>
  <path id="Path_8" data-name="Path 8" d="M380.93,36.454a1.942,1.942,0,1,1,1.363,1.363,1.95,1.95,0,0,1-1.363-1.363" transform="translate(-354.106 -22.944)" fill="#282828"/>
  <path id="Path_9" data-name="Path 9" d="M338.93,2.454a1.942,1.942,0,0,1,3.748-1.022,1.942,1.942,0,1,1-3.748,1.022" transform="translate(-319.257 5.267)" fill="#282828"/>
  <path id="Path_10" data-name="Path 10" d="M340.75,96.43h0A2.248,2.248,0,0,1,343,98.678v9.567h-4.5V98.678a2.248,2.248,0,0,1,2.248-2.248" transform="translate(-318.96 -74.743)" fill="#282828"/>
</svg>
