<svg id="atom-icon-objective" xmlns="http://www.w3.org/2000/svg" width="24" height="24" viewBox="0 0 24 24">
  <path id="atom-icon-crosshairs-gps" d="M13,8.636A4.364,4.364,0,1,1,8.636,13,4.364,4.364,0,0,1,13,8.636M3.236,14.091H1V11.909H3.236a9.813,9.813,0,0,1,8.673-8.673V1h2.182V3.236a9.813,9.813,0,0,1,8.673,8.673H25v2.182H22.764a9.813,9.813,0,0,1-8.673,8.673V25H11.909V22.764a9.813,9.813,0,0,1-8.673-8.673M13,5.364A7.636,7.636,0,1,0,20.636,13,7.636,7.636,0,0,0,13,5.364Z" transform="translate(-1 -1)" fill="#fff"/>
</svg>
