<svg xmlns="http://www.w3.org/2000/svg" width="23.999" height="23.999" viewBox="0 0 23.999 23.999">
  <path id="Path_cog" data-name="Path / cog" d="M14.273,18.2A4.2,4.2,0,1,1,18.59,14a4.26,4.26,0,0,1-4.318,4.2m9.166-3.036A9.073,9.073,0,0,0,23.525,14a9.985,9.985,0,0,0-.086-1.2l2.6-1.956a.594.594,0,0,0,.148-.768L23.722,5.924a.614.614,0,0,0-.752-.264L19.9,6.86a9.005,9.005,0,0,0-2.085-1.176L17.357,2.5A.619.619,0,0,0,16.74,2H11.806a.619.619,0,0,0-.617.5l-.456,3.18A9.005,9.005,0,0,0,8.648,6.86L5.576,5.66a.614.614,0,0,0-.752.264L2.356,10.076a.581.581,0,0,0,.148.768l2.6,1.956A9.985,9.985,0,0,0,5.021,14a9.073,9.073,0,0,0,.086,1.164L2.5,17.155a.581.581,0,0,0-.148.768l2.467,4.152a.628.628,0,0,0,.752.264l3.072-1.212a8.626,8.626,0,0,0,2.085,1.188l.456,3.18a.619.619,0,0,0,.617.5H16.74a.619.619,0,0,0,.617-.5l.456-3.18A9.043,9.043,0,0,0,19.9,21.127l3.072,1.212a.628.628,0,0,0,.752-.264l2.467-4.152a.594.594,0,0,0-.148-.768Z" transform="translate(-2.271 -2)" fill="#fff"/>
</svg>
