<svg xmlns="http://www.w3.org/2000/svg" width="24" height="12" viewBox="0 0 24 12">
  <path id="Path_chart-timeline-variant" data-name="Path / chart-timeline-variant" d="M3.182,14l.545.07L8.713,9.5A1.842,1.842,0,0,1,9.28,7.59a2.293,2.293,0,0,1,3.076,0,1.842,1.842,0,0,1,.567,1.91l2.8,2.57.545-.07a1.382,1.382,0,0,1,.545.07L20.713,8.5a1.08,1.08,0,0,1-.076-.5A2.19,2.19,0,0,1,25,8a2.1,2.1,0,0,1-2.182,2,1.382,1.382,0,0,1-.545-.07L18.378,13.5a1.08,1.08,0,0,1,.076.5,2.1,2.1,0,0,1-2.182,2,2.1,2.1,0,0,1-2.182-2l.076-.5-2.8-2.57a2.86,2.86,0,0,1-1.091,0L5.287,15.5l.076.5a2.1,2.1,0,0,1-2.182,2A2.1,2.1,0,0,1,1,16a2.1,2.1,0,0,1,2.182-2Z" transform="translate(-1 -6)" fill="#fff"/>
</svg>
