<svg xmlns="http://www.w3.org/2000/svg" width="24" height="24" viewBox="0 0 24 24">
  <path id="Path_progress-clock" data-name="Path / progress-clock" d="M15.223,2.03V4.458a9.614,9.614,0,0,1,0,19.085v2.4a12.017,12.017,0,0,0,0-23.916m-2.406.036A11.828,11.828,0,0,0,6.4,4.71l1.72,1.779A9.623,9.623,0,0,1,12.817,4.47v-2.4M4.709,6.4A11.873,11.873,0,0,0,2.05,12.81H4.456A9.63,9.63,0,0,1,6.429,8.123L4.709,6.4M2.062,15.214a12.059,12.059,0,0,0,2.659,6.406L6.429,19.9a9.612,9.612,0,0,1-1.961-4.687H2.062m6.063,6.454L6.4,23.314a12.029,12.029,0,0,0,6.412,2.716v-2.4a9.632,9.632,0,0,1-4.692-1.959M14.621,8v6.309l5.413,3.209L19.132,19l-6.316-3.786V8Z" transform="translate(-2.05 -2.03)" fill="#292929"/>
</svg>
